{
  "accessors": [
    {
      "bufferView": 3,
      "componentType": 5126,
      "count": 248,
      "max": [
        0.5216683745384216,
        1.4687809944152832,
        0.28749215602874756
      ],
      "min": [
        -0.5216683745384216,
        0.6496775150299072,
        -0.38971829414367676
      ],
      "type": "VEC3"
    },
    {
      "bufferView": 3,
      "byteOffset": 2976,
      "componentType": 5126,
      "count": 248,
      "max": [
        0.993220865726471,
        1.0,
        0.6368224024772644
      ],
      "min": [
        -0.993220865726471,
        -1.0,
        -0.9993460774421692
      ],
      "type": "VEC3"
    },
    {
      "bufferView": 2,
      "componentType": 5126,
      "count": 248,
      "max": [
        0.6076282262802124,
        0.35122665762901306
      ],
      "min": [
        0.0003514294803608209,
        0.0003514294803608209
      ],
      "type": "VEC2"
    },
    {
      "bufferView": 1,
      "componentType": 5125,
      "count": 1200,
      "type": "SCALAR"
    },
    {
      "bufferView": 3,
      "byteOffset": 5952,
      "componentType": 5126,
      "count": 2016,
      "max": [
        0.6960989832878113,
        0.812593400478363,
        0.22986546158790588
      ],
      "min": [
        -0.6960989832878113,
        -0.010489106178283691,
        -0.21906107664108276
      ],
      "type": "VEC3"
    },
    {
      "bufferView": 3,
      "byteOffset": 30144,
      "componentType": 5126,
      "count": 2016,
      "max": [
        0.9999994039535522,
        1.0,
        0.9999946355819702
      ],
      "min": [
        -0.9999994039535522,
        -0.9999639391899109,
        -0.9999945163726807
      ],
      "type": "VEC3"
    },
    {
      "bufferView": 2,
      "byteOffset": 1984,
      "componentType": 5126,
      "count": 2016,
      "max": [
        0.8675066828727722,
        0.8958460092544556
      ],
      "min": [
        0.18247388303279877,
        0.0003514294803608209
      ],
      "type": "VEC2"
    },
    {
      "bufferView": 1,
      "byteOffset": 4800,
      "componentType": 5125,
      "count": 10656,
      "type": "SCALAR"
    },
    {
      "bufferView": 3,
      "byteOffset": 54336,
      "componentType": 5126,
      "count": 772,
      "max": [
        0.9080331325531006,
        2.0425314903259277,
        0.10372026264667511
      ],
      "min": [
        -0.9387165904045105,
        1.2579162120819092,
        -0.10372018069028854
      ],
      "type": "VEC3"
    },
    {
      "bufferView": 3,
      "byteOffset": 63600,
      "componentType": 5126,
      "count": 772,
      "max": [
        0.9998497366905212,
        0.9999801516532898,
        0.9999997615814209
      ],
      "min": [
        -0.9998497366905212,
        -0.9908334612846375,
        -0.9999997019767761
      ],
      "type": "VEC3"
    },
    {
      "bufferView": 2,
      "byteOffset": 18112,
      "componentType": 5126,
      "count": 772,
      "max": [
        0.8582610487937927,
        0.7112880349159241
      ],
      "min": [
        0.00035142459091730416,
        0.3473395109176636
      ],
      "type": "VEC2"
    },
    {
      "bufferView": 1,
      "byteOffset": 47424,
      "componentType": 5125,
      "count": 4224,
      "type": "SCALAR"
    },
    {
      "bufferView": 3,
      "byteOffset": 72864,
      "componentType": 5126,
      "count": 120,
      "max": [
        0.34669575095176697,
        0.7253381013870239,
        0.21203380823135376
      ],
      "min": [
        -0.34669575095176697,
        0.5889198184013367,
        -0.19771933555603027
      ],
      "type": "VEC3"
    },
    {
      "bufferView": 3,
      "byteOffset": 74304,
      "componentType": 5126,
      "count": 120,
      "max": [
        0.8970166444778442,
        0.44199708104133606,
        0.9036937355995178
      ],
      "min": [
        -0.897016704082489,
        0.2897188365459442,
        -0.9571118354797363
      ],
      "type": "VEC3"
    },
    {
      "bufferView": 2,
      "byteOffset": 24288,
      "componentType": 5126,
      "count": 120,
      "max": [
        0.9996484518051147,
        0.7257837057113647
      ],
      "min": [
        0.8589639067649841,
        0.3473395109176636
      ],
      "type": "VEC2"
    },
    {
      "bufferView": 1,
      "byteOffset": 64320,
      "componentType": 5125,
      "count": 504,
      "type": "SCALAR"
    },
    {
      "bufferView": 3,
      "byteOffset": 75744,
      "componentType": 5126,
      "count": 1010,
      "max": [
        -0.16528059542179108,
        1.4918136596679688,
        0.3208092451095581
      ],
      "min": [
        -0.440621554851532,
        1.2541890144348145,
        0.1245853379368782
      ],
      "type": "VEC3"
    },
    {
      "bufferView": 3,
      "byteOffset": 87864,
      "componentType": 5126,
      "count": 1010,
      "max": [
        0.9994882345199585,
        0.9891097545623779,
        0.9910825490951538
      ],
      "min": [
        -0.998091459274292,
        -0.9914994239807129,
        -0.9942665696144104
      ],
      "type": "VEC3"
    },
    {
      "bufferView": 2,
      "byteOffset": 25248,
      "componentType": 5126,
      "count": 1010,
      "max": [
        0.7337066531181335,
        0.797980546951294
      ],
      "min": [
        0.00035142642445862293,
        0.7074010968208313
      ],
      "type": "VEC2"
    },
    {
      "bufferView": 1,
      "byteOffset": 66336,
      "componentType": 5125,
      "count": 5568,
      "type": "SCALAR"
    },
    {
      "bufferView": 3,
      "byteOffset": 99984,
      "componentType": 5126,
      "count": 114,
      "max": [
        0.09652318805456161,
        0.5460562109947205,
        -0.18371307849884033
      ],
      "min": [
        -0.09652318805456161,
        0.3530098497867584,
        -0.37675946950912476
      ],
      "type": "VEC3"
    },
    {
      "bufferView": 3,
      "byteOffset": 101352,
      "componentType": 5126,
      "count": 114,
      "max": [
        1.0,
        1.0,
        1.0
      ],
      "min": [
        -1.0,
        -1.0,
        -1.0
      ],
      "type": "VEC3"
    },
    {
      "bufferView": 2,
      "byteOffset": 33328,
      "componentType": 5126,
      "count": 114,
      "max": [
        0.7953691482543945,
        0.7729506492614746
      ],
      "min": [
        0.08650128543376923,
        0.7074010968208313
      ],
      "type": "VEC2"
    },
    {
      "bufferView": 1,
      "byteOffset": 88608,
      "componentType": 5125,
      "count": 576,
      "type": "SCALAR"
    },
    {
      "bufferView": 3,
      "byteOffset": 102720,
      "componentType": 5126,
      "count": 72,
      "max": [
        0.45371007919311523,
        1.3460097312927246,
        0.38971829414367676
      ],
      "min": [
        -0.45371001958847046,
        0.703827440738678,
        0.1695781797170639
      ],
      "type": "VEC3"
    },
    {
      "bufferView": 3,
      "byteOffset": 103584,
      "componentType": 5126,
      "count": 72,
      "max": [
        0.684688150882721,
        0.5632570385932922,
        0.9993460774421692
      ],
      "min": [
        -0.6846882700920105,
        -0.7757420539855957,
        0.490495890378952
      ],
      "type": "VEC3"
    },
    {
      "bufferView": 2,
      "byteOffset": 34240,
      "componentType": 5126,
      "count": 72,
      "max": [
        0.9851067066192627,
        0.854615330696106
      ],
      "min": [
        0.017444729804992676,
        0.14330315589904785
      ],
      "type": "VEC2"
    },
    {
      "bufferView": 1,
      "byteOffset": 90912,
      "componentType": 5125,
      "count": 336,
      "type": "SCALAR"
    },
    {
      "bufferView": 5,
      "componentType": 5126,
      "count": 54,
      "max": [
        100.0,
        0.9608719348907471,
        0.9999735951423645,
        0.0,
        0.999880850315094,
        100.0,
        0.9922858476638794,
        0.0,
        1.0,
        0.9984819293022156,
        100.0,
        0.0,
        0.9893457293510437,
        0.28450334072113037,
        0.25316599011421204,
        1.0
      ],
      "min": [
        -0.8454891443252563,
        -0.9608719348907471,
        -0.999973714351654,
        0.0,
        -0.9998810291290283,
        -0.9999505877494812,
        -0.19877749681472778,
        0.0,
        -0.9999998211860657,
        -0.9922858476638794,
        -0.07913098484277725,
        0.0,
        -0.9893458485603333,
        -1.725692868232727,
        -0.41025370359420776,
        1.0
      ],
      "type": "MAT4"
    },
    {
      "bufferView": 0,
      "componentType": 5123,
      "count": 248,
      "type": "VEC4"
    },
    {
      "bufferView": 4,
      "componentType": 5126,
      "count": 248,
      "max": [
        1.0,
        0.0,
        0.0,
        0.0
      ],
      "min": [
        1.0,
        0.0,
        0.0,
        0.0
      ],
      "type": "VEC4"
    },
    {
      "bufferView": 0,
      "byteOffset": 1984,
      "componentType": 5123,
      "count": 2016,
      "type": "VEC4"
    },
    {
      "bufferView": 4,
      "byteOffset": 3968,
      "componentType": 5126,
      "count": 2016,
      "max": [
        1.0,
        0.49577438831329346,
        0.33301493525505066,
        0.1989602893590927
      ],
      "min": [
        0.29825329780578613,
        0.0,
        0.0,
        0.0
      ],
      "type": "VEC4"
    },
    {
      "bufferView": 0,
      "byteOffset": 18112,
      "componentType": 5123,
      "count": 772,
      "type": "VEC4"
    },
    {
      "bufferView": 4,
      "byteOffset": 36224,
      "componentType": 5126,
      "count": 772,
      "max": [
        1.0,
        0.4950203597545624,
        0.1378173530101776,
        0.039244864135980606
      ],
      "min": [
        0.4722713232040405,
        0.0,
        0.0,
        0.0
      ],
      "type": "VEC4"
    },
    {
      "bufferView": 0,
      "byteOffset": 24288,
      "componentType": 5123,
      "count": 120,
      "type": "VEC4"
    },
    {
      "bufferView": 4,
      "byteOffset": 48576,
      "componentType": 5126,
      "count": 120,
      "max": [
        1.0,
        0.4945666491985321,
        0.2252507358789444,
        0.1534705013036728
      ],
      "min": [
        0.34190547466278076,
        0.0,
        0.0,
        0.0
      ],
      "type": "VEC4"
    },
    {
      "bufferView": 0,
      "byteOffset": 25248,
      "componentType": 5123,
      "count": 1010,
      "type": "VEC4"
    },
    {
      "bufferView": 4,
      "byteOffset": 50496,
      "componentType": 5126,
      "count": 1010,
      "max": [
        1.0,
        0.0,
        0.0,
        0.0
      ],
      "min": [
        1.0,
        0.0,
        0.0,
        0.0
      ],
      "type": "VEC4"
    },
    {
      "bufferView": 0,
      "byteOffset": 33328,
      "componentType": 5123,
      "count": 114,
      "type": "VEC4"
    },
    {
      "bufferView": 4,
      "byteOffset": 66656,
      "componentType": 5126,
      "count": 114,
      "max": [
        1.0,
        0.0,
        0.0,
        0.0
      ],
      "min": [
        1.0,
        0.0,
        0.0,
        0.0
      ],
      "type": "VEC4"
    },
    {
      "bufferView": 0,
      "byteOffset": 34240,
      "componentType": 5123,
      "count": 72,
      "type": "VEC4"
    },
    {
      "bufferView": 4,
      "byteOffset": 68480,
      "componentType": 5126,
      "count": 72,
      "max": [
        1.0,
        0.0,
        0.0,
        0.0
      ],
      "min": [
        1.0,
        0.0,
        0.0,
        0.0
      ],
      "type": "VEC4"
    }
  ],
  "asset": {
    "extras": {
      "author": "TV Animations Cyprus (https://sketchfab.com/www.giorgos.com.cy)",
      "license": "CC-BY-4.0 (http://creativecommons.org/licenses/by/4.0/)",
      "source": "https://sketchfab.com/3d-models/my-melody-from-sanrio-japan-c472021f1c8c4882947a3debe86402f0",
      "title": "My Melody from sanrio japan"
    },
    "generator": "Sketchfab-16.25.0",
    "version": "2.0"
  },
  "bufferViews": [
    {
      "buffer": 0,
      "byteLength": 34816,
      "byteStride": 8,
      "name": "shortBufferViews",
      "target": 34962
    },
    {
      "buffer": 0,
      "byteLength": 92256,
      "byteOffset": 34816,
      "name": "floatBufferViews",
      "target": 34963
    },
    {
      "buffer": 0,
      "byteLength": 34816,
      "byteOffset": 127072,
      "byteStride": 8,
      "name": "floatBufferViews",
      "target": 34962
    },
    {
      "buffer": 0,
      "byteLength": 104448,
      "byteOffset": 161888,
      "byteStride": 12,
      "name": "floatBufferViews",
      "target": 34962
    },
    {
      "buffer": 0,
      "byteLength": 69632,
      "byteOffset": 266336,
      "byteStride": 16,
      "name": "floatBufferViews",
      "target": 34962
    },
    {
      "buffer": 0,
      "byteLength": 3456,
      "byteOffset": 335968,
      "name": "floatBufferViews"
    }
  ],
  "buffers": [
    {
      "byteLength": 339424,
      "uri": "scene.bin"
    }
  ],
  "images": [
    {
      "uri": "textures/Material.001_baseColor.png"
    },
    {
      "uri": "textures/Material.002_baseColor.png"
    }
  ],
  "materials": [
    {
      "doubleSided": true,
      "name": "Material.001",
      "pbrMetallicRoughness": {
        "baseColorTexture": {
          "index": 0
        },
        "metallicFactor": 0.0,
        "roughnessFactor": 0.8211145618000169
      }
    },
    {
      "doubleSided": true,
      "name": "Material.002",
      "pbrMetallicRoughness": {
        "baseColorTexture": {
          "index": 1
        },
        "metallicFactor": 0.0,
        "roughnessFactor": 0.8211145618000169
      }
    }
  ],
  "meshes": [
    {
      "name": "Head_Material.001_0",
      "primitives": [
        {
          "attributes": {
            "JOINTS_0": 29,
            "NORMAL": 1,
            "POSITION": 0,
            "TEXCOORD_0": 2,
            "WEIGHTS_0": 30
          },
          "indices": 3,
          "material": 0,
          "mode": 4
        }
      ]
    },
    {
      "name": "Body_Material.001_0",
      "primitives": [
        {
          "attributes": {
            "JOINTS_0": 31,
            "NORMAL": 5,
            "POSITION": 4,
            "TEXCOORD_0": 6,
            "WEIGHTS_0": 32
          },
          "indices": 7,
          "material": 0,
          "mode": 4
        }
      ]
    },
    {
      "name": "Ears_Material.001_0",
      "primitives": [
        {
          "attributes": {
            "JOINTS_0": 33,
            "NORMAL": 9,
            "POSITION": 8,
            "TEXCOORD_0": 10,
            "WEIGHTS_0": 34
          },
          "indices": 11,
          "material": 0,
          "mode": 4
        }
      ]
    },
    {
      "name": "Cylinder_Material.001_0",
      "primitives": [
        {
          "attributes": {
            "JOINTS_0": 35,
            "NORMAL": 13,
            "POSITION": 12,
            "TEXCOORD_0": 14,
            "WEIGHTS_0": 36
          },
          "indices": 15,
          "material": 0,
          "mode": 4
        }
      ]
    },
    {
      "name": "Flower_Material.001_0",
      "primitives": [
        {
          "attributes": {
            "JOINTS_0": 37,
            "NORMAL": 17,
            "POSITION": 16,
            "TEXCOORD_0": 18,
            "WEIGHTS_0": 38
          },
          "indices": 19,
          "material": 0,
          "mode": 4
        }
      ]
    },
    {
      "name": "Tail_Material.001_0",
      "primitives": [
        {
          "attributes": {
            "JOINTS_0": 39,
            "NORMAL": 21,
            "POSITION": 20,
            "TEXCOORD_0": 22,
            "WEIGHTS_0": 40
          },
          "indices": 23,
          "material": 0,
          "mode": 4
        }
      ]
    },
    {
      "name": "Face_Material.002_0",
      "primitives": [
        {
          "attributes": {
            "JOINTS_0": 41,
            "NORMAL": 25,
            "POSITION": 24,
            "TEXCOORD_0": 26,
            "WEIGHTS_0": 42
          },
          "indices": 27,
          "material": 1,
          "mode": 4
        }
      ]
    }
  ],
  "nodes": [
    {
      "children": [
        1
      ],
      "matrix": [
        1.0,
        0.0,
        0.0,
        0.0,
        0.0,
        2.220446049250313e-16,
        -1.0,
        0.0,
        0.0,
        1.0,
        2.220446049250313e-16,
        0.0,
        0.0,
        0.0,
        0.0,
        1.0
      ],
      "name": "Sketchfab_model"
    },
    {
      "children": [
        2
      ],
      "matrix": [
        0.009999999776482582,
        0.0,
        0.0,
        0.0,
        0.0,
        0.0,
        0.009999999776482582,
        0.0,
        0.0,
        -0.009999999776482582,
        0.0,
        0.0,
        0.0,
        0.0,
        0.0,
        1.0
      ],
      "name": "MyMelody(NoOutline).fbx"
    },
    {
      "children": [
        3
      ],
      "name": "RootNode"
    },
    {
      "children": [
        4
      ],
      "matrix": [
        100.0,
        0.0,
        0.0,
        0.0,
        0.0,
        -2.8212996916465727e-05,
        -99.99999999999602,
        0.0,
        0.0,
        99.99999999999602,
        -2.8212996916465727e-05,
        0.0,
        0.0,
        0.0,
        0.0,
        1.0
      ],
      "name": "Armature"
    },
    {
      "children": [
        5,
        7,
        9,
        11,
        13,
        15,
        17,
        19,
        6,
        8,
        10,
        12,
        14,
        16,
        18
      ],
      "name": "Object_4"
    },
    {
      "children": [
        20,
        22
      ],
      "name": "_rootJoint"
    },
    {
      "matrix": [
        100.00000000000568,
        1.7121139414987424e-18,
        7.389656615298165e-13,
        0.0,
        7.389656615311345e-13,
        -1.8146425263928597e-12,
        -100.00000000018404,
        0.0,
        -1.7121139280921138e-18,
        100.00000000017836,
        -1.8146425263927565e-12,
        0.0,
        5.42888975776209e-20,
        100.26792097109578,
        -1.2408245817548819e-12,
        1.0
      ],
      "name": "Object_6"
    },
    {
      "mesh": 0,
      "name": "Object_7",
      "skin": 0
    },
    {
      "matrix": [
        100.00000000000568,
        1.7121139414987424e-18,
        7.389656615298165e-13,
        0.0,
        7.389656615311345e-13,
        -1.8146425263928597e-12,
        -100.00000000018404,
        0.0,
        -1.7121139280921138e-18,
        100.00000000017836,
        -1.8146425263927565e-12,
        0.0,
        5.42888975776209e-20,
        100.26792097109578,
        -1.2408245817548819e-12,
        1.0
      ],
      "name": "Object_8"
    },
    {
      "mesh": 1,
      "name": "Object_9",
      "skin": 0
    },
    {
      "matrix": [
        100.00000000000568,
        1.7121139414987424e-18,
        7.389656615298165e-13,
        0.0,
        7.389656615311345e-13,
        -1.8146425263928597e-12,
        -100.00000000018404,
        0.0,
        -1.7121139280921138e-18,
        100.00000000017836,
        -1.8146425263927565e-12,
        0.0,
        5.42888975776209e-20,
        100.26792097109578,
        -1.2408245817548819e-12,
        1.0
      ],
      "name": "Object_10"
    },
    {
      "mesh": 2,
      "name": "Object_11",
      "skin": 0
    },
    {
      "matrix": [
        100.00000000000568,
        1.7121139414987424e-18,
        7.389656615298165e-13,
        0.0,
        7.389656615311345e-13,
        -1.8146425263928597e-12,
        -100.00000000018404,
        0.0,
        -1.7121139280921138e-18,
        100.00000000017836,
        -1.8146425263927565e-12,
        0.0,
        -4.1322593321668423e-19,
        70.991496324666,
        5.407147941741998e-12,
        1.0
      ],
      "name": "Object_12"
    },
    {
      "mesh": 3,
      "name": "Object_13",
      "skin": 0
    },
    {
      "matrix": [
        100.00000000000568,
        1.7121139414987424e-18,
        7.389656615298165e-13,
        0.0,
        7.389656615311345e-13,
        -1.8146425263928597e-12,
        -100.00000000018404,
        0.0,
        -1.7121139280921138e-18,
        100.00000000017836,
        -1.8146425263927565e-12,
        0.0,
        -29.283118247939466,
        148.07898807552908,
        6.4238487223274195e-06,
        1.0
      ],
      "name": "Object_14"
    },
    {
      "mesh": 4,
      "name": "Object_15",
      "skin": 0
    },
    {
      "matrix": [
        100.00000000000568,
        1.7121139414987424e-18,
        7.389656615298165e-13,
        0.0,
        7.389656615311345e-13,
        -1.8146425263928597e-12,
        -100.00000000018404,
        0.0,
        -1.7121139280921138e-18,
        100.00000000017836,
        -1.8146425263927565e-12,
        0.0,
        3.244551437416032e-13,
        44.95330339254324,
        -28.02362710870729,
        1.0
      ],
      "name": "Object_16"
    },
    {
      "mesh": 5,
      "name": "Object_17",
      "skin": 0
    },
    {
      "matrix": [
        100.00000000000568,
        1.7121139414987424e-18,
        7.389656615298165e-13,
        0.0,
        7.389656615311345e-13,
        -1.8146425263928597e-12,
        -100.00000000018404,
        0.0,
        -1.7121139280921138e-18,
        100.00000000017836,
        -1.8146425263927565e-12,
        0.0,
        5.42888975776209e-20,
        100.26792097109578,
        -1.2408245817548819e-12,
        1.0
      ],
      "name": "Object_18"
    },
    {
      "mesh": 6,
      "name": "Object_19",
      "skin": 0
    },
    {
      "children": [
        21
      ],
      "name": "Root_00",
      "rotation": [
        0.7071064710617065,
        8.429369557916289e-08,
        8.429360320860724e-08,
        0.7071071267127991
      ],
      "translation": [
        -1.1345800173494617e-22,
        2.9927598177437176e-09,
        0.0015287213027477264
      ]
    },
    {
      "name": "Root_end_041",
      "rotation": [
        1.0587911840678754e-22,
        1.3234889800848443e-23,
        -1.401298464324817e-45,
        1.0
      ],
      "translation": [
        -6.015064402310215e-30,
        0.15497206151485443,
        4.1979416087066155e-23
      ]
    },
    {
      "children": [
        23,
        57,
        62,
        67,
        69,
        71
      ],
      "name": "Hips_01",
      "rotation": [
        0.6970224380493164,
        8.547899454924845e-08,
        8.309161358965866e-08,
        0.7170493006706238
      ],
      "translation": [
        0.00018083228496834636,
        -0.0073324828408658504,
        0.2320367395877838
      ]
    },
    {
      "children": [
        24
      ],
      "name": "Spine_02",
      "rotation": [
        0.010514261201024055,
        -7.808738464870624e-14,
        2.506795881984658e-09,
        0.9999447464942932
      ],
      "scale": [
        1.0,
        1.0000001192092896,
        1.0
      ],
      "translation": [
        7.129584700393821e-10,
        0.12163955718278885,
        -0.0028529707342386246
      ]
    },
    {
      "children": [
        25
      ],
      "name": "Spine.001_03",
      "rotation": [
        0.0026628333143889904,
        2.844270568310055e-14,
        6.348692127566835e-10,
        0.9999964833259583
      ],
      "translation": [
        -3.253078362241979e-12,
        0.09987267106771469,
        -1.6061302288150614e-10
      ]
    },
    {
      "children": [
        26,
        37,
        47
      ],
      "name": "Spine.002_04",
      "rotation": [
        0.024260392412543297,
        -4.1455516103239276e-11,
        5.728213903211099e-09,
        0.9997056722640991
      ],
      "translation": [
        -9.617386748095313e-12,
        0.10142555832862854,
        -7.817906044760292e-12
      ]
    },
    {
      "children": [
        27,
        32
      ],
      "name": "Head_05",
      "rotation": [
        -0.008208194747567177,
        5.5761957551414554e-11,
        -1.9149264396389754e-09,
        0.9999663233757019
      ],
      "scale": [
        1.0,
        0.9999998211860657,
        0.9999997615814209
      ],
      "translation": [
        -0.0001808290253393352,
        0.1153486892580986,
        -0.00020627817139029503
      ]
    },
    {
      "children": [
        28
      ],
      "name": "Ear.L_06",
      "rotation": [
        0.040361493825912476,
        -0.016909459605813026,
        -0.40055468678474426,
        0.9152272939682007
      ],
      "translation": [
        0.21357287466526031,
        0.7698245048522949,
        -0.023209452629089355
      ]
    },
    {
      "children": [
        29
      ],
      "name": "Ear.L.001_07",
      "rotation": [
        -0.05351979285478592,
        4.217060478595158e-08,
        -0.01807866245508194,
        0.9984031319618225
      ],
      "translation": [
        -1.0186340659856796e-08,
        0.2200252264738083,
        -5.587935447692871e-09
      ]
    },
    {
      "children": [
        30
      ],
      "name": "Ear.L.002_08",
      "rotation": [
        0.00023653291282244027,
        1.140894578810503e-08,
        -0.009284286759793758,
        0.9999569654464722
      ],
      "scale": [
        1.0,
        1.0,
        0.9999999403953552
      ],
      "translation": [
        6.746267899870872e-08,
        0.22256983816623688,
        -1.3969838619232178e-09
      ]
    },
    {
      "children": [
        31
      ],
      "name": "Ear.L.003_09",
      "rotation": [
        -4.331742456997745e-05,
        1.9581086974085338e-07,
        0.00170035136397928,
        0.9999985694885254
      ],
      "translation": [
        -8.381903171539307e-08,
        0.19856853783130646,
        1.3969838619232178e-09
      ]
    },
    {
      "name": "Ear.L.003_end_042",
      "rotation": [
        1.8752647707720167e-18,
        -1.734723475976807e-18,
        -1.1970116085876083e-16,
        1.0
      ],
      "translation": [
        -1.1102230246251565e-16,
        0.24719634652137756,
        0.0
      ]
    },
    {
      "children": [
        33
      ],
      "name": "Ear.R_010",
      "rotation": [
        0.040361400693655014,
        0.016909245401620865,
        0.40055468678474426,
        0.9152272939682007
      ],
      "translation": [
        -0.21357287466526031,
        0.7698245048522949,
        -0.023209555074572563
      ]
    },
    {
      "children": [
        34
      ],
      "name": "Ear.R.001_011",
      "rotation": [
        -0.05351981148123741,
        1.565695484373464e-08,
        0.018078703433275223,
        0.9984031319618225
      ],
      "scale": [
        1.0,
        1.0,
        0.9999999403953552
      ],
      "translation": [
        9.837094694375992e-09,
        0.2200251966714859,
        3.725290298461914e-09
      ]
    },
    {
      "children": [
        35
      ],
      "name": "Ear.R.002_012",
      "rotation": [
        0.00023653557582292706,
        -6.915368544468947e-08,
        0.009284279309213161,
        0.9999569654464722
      ],
      "translation": [
        -7.10715539753437e-08,
        0.22256986796855927,
        9.313225746154785e-10
      ]
    },
    {
      "children": [
        36
      ],
      "name": "Ear.R.003_013",
      "rotation": [
        -4.331525997258723e-05,
        -1.9534519424269092e-07,
        -0.0017003515968099236,
        0.9999985694885254
      ],
      "scale": [
        1.0,
        1.0,
        1.0000001192092896
      ],
      "translation": [
        -3.573950380086899e-08,
        0.19856871664524078,
        1.862645149230957e-09
      ]
    },
    {
      "name": "Ear.R.003_end_043",
      "rotation": [
        -1.8785867281120297e-18,
        4.1036067263810424e-36,
        -2.184411737389982e-18,
        1.0
      ],
      "translation": [
        0.0,
        0.24719634652137756,
        0.0
      ]
    },
    {
      "children": [
        38
      ],
      "name": "shoulder.L_014",
      "rotation": [
        -0.010148038156330585,
        -0.020023765042424202,
        -0.7987738847732544,
        0.6012123823165894
      ],
      "scale": [
        0.9999999403953552,
        1.0,
        0.9999999403953552
      ],
      "translation": [
        0.057442642748355865,
        0.12083976715803146,
        -0.010622779838740826
      ]
    },
    {
      "children": [
        39
      ],
      "name": "UpperArm.L_015",
      "rotation": [
        -0.0033982342574745417,
        -0.002300117863342166,
        -0.024393770843744278,
        0.9996939897537231
      ],
      "scale": [
        1.0,
        1.0000001192092896,
        0.9999999403953552
      ],
      "translation": [
        0.0003477727877907455,
        0.19447587430477142,
        1.0336400009691715e-05
      ]
    },
    {
      "children": [
        40
      ],
      "name": "forearm.L_016",
      "rotation": [
        -0.000647099397610873,
        -0.00018593049026094377,
        0.009515018202364445,
        0.9999545216560364
      ],
      "scale": [
        0.9999999403953552,
        0.9999999403953552,
        1.0
      ],
      "translation": [
        5.461728846967162e-08,
        0.17958617210388184,
        -4.041851298097754e-10
      ]
    },
    {
      "children": [
        41,
        44
      ],
      "name": "Hand.L_017",
      "rotation": [
        0.0006475764093920588,
        0.0001842200435930863,
        -0.007123803719878197,
        0.9999744892120361
      ],
      "scale": [
        0.9999999403953552,
        1.0000001192092896,
        1.0
      ],
      "translation": [
        4.7837261263339315e-08,
        0.1719077080488205,
        -2.128217602148652e-10
      ]
    },
    {
      "children": [
        42
      ],
      "name": "Mid.L_018",
      "rotation": [
        4.800899660040159e-07,
        1.943504685186781e-06,
        -0.12655143439769745,
        0.9919600486755371
      ],
      "scale": [
        1.0,
        1.0000001192092896,
        0.9999999403953552
      ],
      "translation": [
        -2.0477649798067432e-08,
        0.06497052311897278,
        8.213874025386758e-11
      ]
    },
    {
      "children": [
        43
      ],
      "name": "Mid.L.001_019",
      "rotation": [
        1.297929657084751e-06,
        2.1718402365422662e-07,
        -0.21291856467723846,
        0.9770699739456177
      ],
      "translation": [
        2.3931411519129142e-08,
        0.02764725685119629,
        -1.1232259566895664e-10
      ]
    },
    {
      "name": "Mid.L.001_end_044",
      "rotation": [
        -3.639594695233322e-23,
        -4.235164736271502e-22,
        2.9670680713423934e-17,
        1.0
      ],
      "translation": [
        -1.1102230246251565e-16,
        0.033082831650972366,
        -4.336808689942018e-19
      ]
    },
    {
      "children": [
        45
      ],
      "name": "Thumb.L_020",
      "rotation": [
        0.5473228693008423,
        0.09069733321666718,
        -0.274443656206131,
        0.7854249477386475
      ],
      "scale": [
        0.9999999403953552,
        0.9999999403953552,
        0.9999998807907104
      ],
      "translation": [
        0.01165735349059105,
        0.011099218390882015,
        0.053121574223041534
      ]
    },
    {
      "children": [
        46
      ],
      "name": "Thumb.L.001_021",
      "rotation": [
        0.038380227982997894,
        0.014389852061867714,
        0.16607573628425598,
        0.9852608442306519
      ],
      "scale": [
        1.0,
        1.0000001192092896,
        1.0
      ],
      "translation": [
        -1.1175870895385742e-08,
        0.038387708365917206,
        -4.470348358154297e-08
      ]
    },
    {
      "name": "Thumb.L.001_end_045",
      "rotation": [
        0.0,
        -2.7755575615628914e-17,
        0.0,
        1.0
      ],
      "translation": [
        0.0,
        0.03250213712453842,
        0.0
      ]
    },
    {
      "children": [
        48
      ],
      "name": "shoulder.R_022",
      "rotation": [
        -0.010148218832910061,
        0.020023617893457413,
        0.7987738847732544,
        0.6012123823165894
      ],
      "scale": [
        0.9999999403953552,
        0.9999999403953552,
        0.9999998211860657
      ],
      "translation": [
        -0.05780431628227234,
        0.12083976715803146,
        -0.010622805915772915
      ]
    },
    {
      "children": [
        49
      ],
      "name": "UpperArm.R_023",
      "rotation": [
        -0.003398232627660036,
        0.0023000675719231367,
        0.024393750354647636,
        0.9996939897537231
      ],
      "scale": [
        0.9999999403953552,
        1.0,
        0.9999998807907104
      ],
      "translation": [
        -0.0003478845756035298,
        0.19447585940361023,
        1.0335585102438927e-05
      ]
    },
    {
      "children": [
        50
      ],
      "name": "forearm.R_024",
      "rotation": [
        -0.0006471000961028039,
        0.0001859846233855933,
        -0.00951501727104187,
        0.9999545216560364
      ],
      "translation": [
        -4.0123676825487564e-08,
        0.17958621680736542,
        -1.6541434888495132e-10
      ]
    },
    {
      "children": [
        51,
        54
      ],
      "name": "Hand.R_025",
      "rotation": [
        0.0006475765258073807,
        -0.00018422001448925585,
        0.007123788818717003,
        0.9999744892120361
      ],
      "scale": [
        0.9999999403953552,
        1.0000001192092896,
        1.0
      ],
      "translation": [
        -3.296281647635624e-08,
        0.17190773785114288,
        1.0368239600211382e-10
      ]
    },
    {
      "children": [
        52
      ],
      "name": "Mid.R_026",
      "rotation": [
        4.815619263354165e-07,
        -1.9434119167272e-06,
        0.12655143439769745,
        0.9919600486755371
      ],
      "translation": [
        5.549390280634725e-09,
        0.06497050821781158,
        -2.517026587156579e-10
      ]
    },
    {
      "children": [
        53
      ],
      "name": "Mid.R.001_027",
      "rotation": [
        1.2771153024004889e-06,
        -1.1130221366784099e-07,
        0.21291866898536682,
        0.9770700335502625
      ],
      "scale": [
        1.0000001192092896,
        1.0,
        1.0
      ],
      "translation": [
        -5.375406431085139e-08,
        0.02764725685119629,
        -2.4579094315413386e-10
      ]
    },
    {
      "name": "Mid.R.001_end_046",
      "rotation": [
        5.128519797828772e-22,
        -8.470329472543003e-22,
        -2.578349100851879e-17,
        1.0
      ],
      "translation": [
        1.1102230246251565e-16,
        0.033082831650972366,
        0.0
      ]
    },
    {
      "children": [
        55
      ],
      "name": "Thumb.R_028",
      "rotation": [
        0.5473228096961975,
        -0.09069724380970001,
        0.27444371581077576,
        0.7854251265525818
      ],
      "scale": [
        1.0,
        1.0000001192092896,
        0.9999999403953552
      ],
      "translation": [
        -0.011657368391752243,
        0.011099203489720821,
        0.053121574223041534
      ]
    },
    {
      "children": [
        56
      ],
      "name": "Thumb.R.001_029",
      "rotation": [
        0.038380250334739685,
        -0.0143899442628026,
        -0.16607563197612762,
        0.9852607846260071
      ],
      "scale": [
        0.9999998807907104,
        0.9999998807907104,
        1.0
      ],
      "translation": [
        -2.9802322387695313e-08,
        0.03838769346475601,
        -3.5390257835388184e-08
      ]
    },
    {
      "name": "Thumb.R.001_end_047",
      "rotation": [
        1.829633447167874e-33,
        -6.591949208711867e-17,
        2.7755575615628914e-17,
        1.0
      ],
      "translation": [
        0.0,
        0.03250213712453842,
        -5.551115123125783e-17
      ]
    },
    {
      "children": [
        58
      ],
      "name": "thigh.L_030",
      "rotation": [
        0.7070775628089905,
        0.013530600816011429,
        -0.7069767117500305,
        -0.00649629021063447
      ],
      "scale": [
        1.0,
        0.9999998807907104,
        1.0
      ],
      "translation": [
        0.13864338397979736,
        0.05372651666402817,
        0.005533411633223295
      ]
    },
    {
      "children": [
        59
      ],
      "name": "shin.L_031",
      "rotation": [
        0.0013625564752146602,
        -0.00018454484234098345,
        -0.00383646204136312,
        0.9999917149543762
      ],
      "scale": [
        1.0,
        0.9999999403953552,
        1.0
      ],
      "translation": [
        4.377440632197249e-10,
        0.08562534302473068,
        -2.1279973339005664e-09
      ]
    },
    {
      "children": [
        60
      ],
      "name": "Foot.L_032",
      "rotation": [
        -0.057184476405382156,
        0.08727709949016571,
        0.5659394264221191,
        0.8178173303604126
      ],
      "scale": [
        0.9999999403953552,
        1.0,
        1.0
      ],
      "translation": [
        4.1109160520136356e-10,
        0.07826459407806396,
        9.913946996675804e-09
      ]
    },
    {
      "children": [
        61
      ],
      "name": "Toe.L_033",
      "rotation": [
        0.007249017246067524,
        -0.10641524940729141,
        0.17994795739650726,
        0.9778762459754944
      ],
      "scale": [
        1.0000001192092896,
        1.0000003576278687,
        1.0000001192092896
      ],
      "translation": [
        -1.862645149230957e-09,
        0.15583087503910065,
        -4.6566128730773926e-09
      ]
    },
    {
      "name": "Toe.L_end_048",
      "rotation": [
        -3.469446951953614e-18,
        -2.710505431213761e-19,
        -1.734723475976807e-18,
        1.0
      ],
      "translation": [
        0.0,
        0.060926053673028946,
        2.7755575615628914e-17
      ]
    },
    {
      "children": [
        63
      ],
      "name": "thigh.R_034",
      "rotation": [
        0.7070774435997009,
        -0.013532708398997784,
        0.7069767713546753,
        -0.00649418355897069
      ],
      "scale": [
        1.0,
        0.9999998211860657,
        1.0000001192092896
      ],
      "translation": [
        -0.13900506496429443,
        0.05372651666402817,
        0.0055333455093204975
      ]
    },
    {
      "children": [
        64
      ],
      "name": "shin.R_035",
      "rotation": [
        0.001362561248242855,
        0.00018460422870703042,
        0.0038364622741937637,
        0.9999917149543762
      ],
      "scale": [
        1.0,
        0.9999999403953552,
        1.0
      ],
      "translation": [
        -1.2644107982850983e-10,
        0.08562535047531128,
        -5.573205896780564e-09
      ]
    },
    {
      "children": [
        65
      ],
      "name": "Foot.R_036",
      "rotation": [
        -0.05718447268009186,
        -0.08727707713842392,
        -0.5659393072128296,
        0.8178174495697021
      ],
      "scale": [
        0.9999998807907104,
        1.0,
        0.9999998807907104
      ],
      "translation": [
        -3.4560798667371273e-10,
        0.07826459407806396,
        9.795712685445324e-09
      ]
    },
    {
      "children": [
        66
      ],
      "name": "Toe.R_037",
      "rotation": [
        0.007249234244227409,
        0.10641636699438095,
        -0.17994798719882965,
        0.9778761267662048
      ],
      "scale": [
        1.0,
        0.9999999403953552,
        0.9999998807907104
      ],
      "translation": [
        0.0,
        0.15583087503910065,
        -2.60770320892334e-08
      ]
    },
    {
      "name": "Toe.R_end_049",
      "rotation": [
        -6.938893903907228e-18,
        -1.3010426069826053e-18,
        -9.027796614315168e-36,
        1.0
      ],
      "translation": [
        0.0,
        0.060926053673028946,
        2.7755575615628914e-17
      ]
    },
    {
      "children": [
        68
      ],
      "name": "Hip.L_038",
      "rotation": [
        -0.3774673044681549,
        -0.5869991183280945,
        -0.39424893260002136,
        0.5979282855987549
      ],
      "scale": [
        1.0,
        0.9999998807907104,
        1.0
      ],
      "translation": [
        3.65285579562169e-12,
        -3.536115400493145e-09,
        4.31138111323115e-11
      ]
    },
    {
      "name": "Hip.L_end_050",
      "rotation": [
        -1.9577070500110943e-17,
        -5.293955920339377e-23,
        -1.3234889800848443e-23,
        1.0
      ],
      "translation": [
        0.0,
        0.27516984939575195,
        0.0
      ]
    },
    {
      "children": [
        70
      ],
      "name": "Hip.R_039",
      "rotation": [
        -0.37746867537498474,
        0.5869981646537781,
        0.3942502439022064,
        0.5979275107383728
      ],
      "scale": [
        1.0000001192092896,
        1.0000001192092896,
        1.0000001192092896
      ],
      "translation": [
        -0.00036166448262520134,
        -3.536115400493145e-09,
        -4.3113790315629785e-11
      ]
    },
    {
      "name": "Hip.R_end_051",
      "rotation": [
        7.200863989136242e-17,
        1.9060531776669378e-39,
        2.6469779601696886e-23,
        1.0
      ],
      "translation": [
        0.0,
        0.27516984939575195,
        0.0
      ]
    },
    {
      "children": [
        72
      ],
      "name": "Tail_040",
      "rotation": [
        -0.65114426612854,
        -8.137089770434217e-14,
        -1.5524496177476976e-07,
        0.7589539885520935
      ],
      "translation": [
        5.3386283838108284e-08,
        0.21562375128269196,
        -0.22378073632717133
      ]
    },
    {
      "name": "Tail_end_052",
      "rotation": [
        -1.3877787807814457e-17,
        7.444625512977249e-24,
        1.0331493317774011e-40,
        1.0
      ],
      "translation": [
        -2.710505431213761e-20,
        0.1604137122631073,
        0.0
      ]
    }
  ],
  "samplers": [
    {
      "magFilter": 9729,
      "minFilter": 9987,
      "wrapS": 10497,
      "wrapT": 10497
    }
  ],
  "scene": 0,
  "scenes": [
    {
      "name": "Sketchfab_Scene",
      "nodes": [
        0
      ]
    }
  ],
  "skins": [
    {
      "inverseBindMatrices": 28,
      "joints": [
        5,
        20,
        21,
        22,
        23,
        24,
        25,
        26,
        27,
        28,
        29,
        30,
        31,
        32,
        33,
        34,
        35,
        36,
        37,
        38,
        39,
        40,
        41,
        42,
        43,
        44,
        45,
        46,
        47,
        48,
        49,
        50,
        51,
        52,
        53,
        54,
        55,
        56,
        57,
        58,
        59,
        60,
        61,
        62,
        63,
        64,
        65,
        66,
        67,
        68,
        69,
        70,
        71,
        72
      ],
      "skeleton": 5
    }
  ],
  "textures": [
    {
      "sampler": 0,
      "source": 0
    },
    {
      "sampler": 0,
      "source": 1
    }
  ]
}
